<svg width="32" height="32" viewBox="0 0 32 32" fill="none" xmlns="http://www.w3.org/2000/svg">
<path d="M7 12C6.0111 12 5.0444 11.7068 4.22215 11.1573C3.39991 10.6079 2.75904 9.82705 2.3806 8.91342C2.00217 7.99979 1.90315 6.99445 2.09608 6.02455C2.289 5.05464 2.76521 4.16373 3.46447 3.46447C4.16373 2.7652 5.05465 2.289 6.02455 2.09607C6.99446 1.90315 7.99979 2.00216 8.91342 2.3806C9.82705 2.75904 10.6079 3.3999 11.1573 4.22215C11.7068 5.04439 12 6.01109 12 7H10C10 6.40666 9.82406 5.82664 9.49441 5.33329C9.16477 4.83994 8.69623 4.45542 8.14805 4.22836C7.59987 4.0013 6.99667 3.94189 6.41473 4.05764C5.83279 4.1734 5.29824 4.45912 4.87868 4.87868C4.45912 5.29824 4.1734 5.83279 4.05765 6.41473C3.94189 6.99667 4.0013 7.59987 4.22836 8.14805C4.45543 8.69623 4.83994 9.16476 5.33329 9.49441C5.82664 9.82405 6.40666 10 7 10V12Z" fill="white"/>
<path d="M25 12V10C25.5933 10 26.1734 9.82405 26.6667 9.49441C27.1601 9.16476 27.5446 8.69623 27.7716 8.14805C27.9987 7.59987 28.0581 6.99667 27.9424 6.41473C27.8266 5.83279 27.5409 5.29824 27.1213 4.87868C26.7018 4.45912 26.1672 4.1734 25.5853 4.05764C25.0033 3.94189 24.4001 4.0013 23.8519 4.22836C23.3038 4.45542 22.8352 4.83994 22.5056 5.33329C22.1759 5.82664 22 6.40666 22 7H20C20 6.01109 20.2932 5.04439 20.8427 4.22215C21.3921 3.3999 22.173 2.75904 23.0866 2.3806C24.0002 2.00216 25.0055 1.90315 25.9755 2.09607C26.9454 2.289 27.8363 2.7652 28.5355 3.46447C29.2348 4.16373 29.711 5.05464 29.9039 6.02455C30.0969 6.99445 29.9978 7.99979 29.6194 8.91342C29.241 9.82705 28.6001 10.6079 27.7779 11.1573C26.9556 11.7068 25.9889 12 25 12Z" fill="white"/>
<path d="M7 30C5.67392 30 4.40215 29.4732 3.46447 28.5355C2.52678 27.5979 2 26.3261 2 25C2 23.6739 2.52678 22.4021 3.46447 21.4645C4.40215 20.5268 5.67392 20 7 20V22C6.40666 22 5.82664 22.1759 5.33329 22.5056C4.83994 22.8352 4.45542 23.3038 4.22836 23.8519C4.0013 24.4001 3.94189 25.0033 4.05764 25.5853C4.1734 26.1672 4.45912 26.7018 4.87868 27.1213C5.29824 27.5409 5.83279 27.8266 6.41473 27.9424C6.99667 28.0581 7.59987 27.9987 8.14805 27.7716C8.69623 27.5446 9.16476 27.1601 9.49441 26.6667C9.82405 26.1734 10 25.5933 10 25H12C11.9985 26.3256 11.4713 27.5966 10.5339 28.5339C9.59656 29.4713 8.32564 29.9985 7 30V30Z" fill="white"/>
<path d="M25 30C23.6744 29.9985 22.4034 29.4713 21.4661 28.5339C20.5287 27.5966 20.0015 26.3256 20 25H22C22 25.5933 22.1759 26.1734 22.5056 26.6667C22.8352 27.1601 23.3038 27.5446 23.8519 27.7716C24.4001 27.9987 25.0033 28.0581 25.5853 27.9424C26.1672 27.8266 26.7018 27.5409 27.1213 27.1213C27.5409 26.7018 27.8266 26.1672 27.9424 25.5853C28.0581 25.0033 27.9987 24.4001 27.7716 23.8519C27.5446 23.3038 27.1601 22.8352 26.6667 22.5056C26.1734 22.1759 25.5933 22 25 22V20C26.3261 20 27.5979 20.5268 28.5355 21.4645C29.4732 22.4021 30 23.6739 30 25C30 26.3261 29.4732 27.5979 28.5355 28.5355C27.5979 29.4732 26.3261 30 25 30Z" fill="white"/>
<path d="M20 18.5859V13.4141L25.707 7.707C25.8025 7.61475 25.8787 7.50441 25.9311 7.38241C25.9835 7.2604 26.0111 7.12918 26.0123 6.9964C26.0134 6.86362 25.9881 6.73194 25.9378 6.60905C25.8875 6.48615 25.8133 6.3745 25.7194 6.28061C25.6255 6.18671 25.5139 6.11246 25.391 6.06218C25.2681 6.0119 25.1364 5.9866 25.0036 5.98775C24.8708 5.9889 24.7396 6.01649 24.6176 6.0689C24.4956 6.12131 24.3852 6.19749 24.293 6.293L19.7935 10.793C19.5417 9.98379 19.0378 9.2763 18.3553 8.77389C17.6728 8.27148 16.8475 8.00048 16 8.00048C15.1525 8.00048 14.3273 8.27148 13.6448 8.77389C12.9623 9.2763 12.4583 9.98379 12.2065 10.793L7.707 6.293C7.61419 6.2001 7.50398 6.12641 7.38267 6.07613C7.26135 6.02585 7.13132 5.99997 7 5.99997C6.86869 5.99997 6.73865 6.02585 6.61734 6.07613C6.49603 6.12641 6.38582 6.2001 6.293 6.293V6.293C6.20011 6.38582 6.12641 6.49603 6.07613 6.61734C6.02585 6.73865 5.99997 6.86868 5.99997 7C5.99997 7.13132 6.02585 7.26135 6.07613 7.38266C6.12641 7.50397 6.20011 7.61419 6.293 7.707L12 13.4141V18.5859L6.293 24.293C6.20011 24.3858 6.12641 24.496 6.07613 24.6173C6.02585 24.7387 5.99997 24.8687 5.99997 25C5.99997 25.1313 6.02585 25.2614 6.07613 25.3827C6.12641 25.504 6.20011 25.6142 6.293 25.707V25.707C6.38582 25.7999 6.49603 25.8736 6.61734 25.9239C6.73865 25.9742 6.86869 26 7 26C7.13132 26 7.26135 25.9742 7.38267 25.9239C7.50398 25.8736 7.61419 25.7999 7.707 25.707L12.207 21.207C12.4588 22.0162 12.9628 22.7237 13.6453 23.2261C14.3278 23.7285 15.153 23.9995 16.0005 23.9995C16.848 23.9995 17.6733 23.7285 18.3558 23.2261C19.0383 22.7237 19.5422 22.0162 19.794 21.207L24.2935 25.707C24.4821 25.8892 24.7347 25.99 24.9969 25.9877C25.2591 25.9854 25.5099 25.8802 25.6953 25.6948C25.8807 25.5094 25.9859 25.2586 25.9882 24.9964C25.9905 24.7342 25.8897 24.4816 25.7075 24.293L20 18.5859ZM18 20C18 20.5304 17.7893 21.0391 17.4142 21.4142C17.0391 21.7893 16.5304 22 16 22C15.4696 22 14.9609 21.7893 14.5858 21.4142C14.2107 21.0391 14 20.5304 14 20V12C14 11.4696 14.2107 10.9609 14.5858 10.5858C14.9609 10.2107 15.4696 10 16 10C16.5304 10 17.0391 10.2107 17.4142 10.5858C17.7893 10.9609 18 11.4696 18 12V20Z" fill="white"/>
</svg>
